Coordinates
version=1
nRows=19
nColumns=24
inDegrees=yes

Units are S.I. units (second, meters, Newtons, ...)
Angles are in degrees.

endheader
time	pelvis_tilt	pelvis_list	pelvis_rotation	pelvis_tx	pelvis_ty	pelvis_tz	hip_flexion_r	hip_adduction_r	hip_rotation_r	knee_angle_r	ankle_angle_r	subtalar_angle_r	mtp_angle_r	hip_flexion_l	hip_adduction_l	hip_rotation_l	knee_angle_l	ankle_angle_l	subtalar_angle_l	mtp_angle_l	lumbar_extension	lumbar_bending	lumbar_rotation
      0.95816667	      2.08535062	      3.61502278	     -5.31302414	     -0.18194484	      1.00970255	      0.26421505	    -10.99454669	     -1.50325411	     -0.60474033	    -12.12219139	     15.92849722	     -5.22435491	      8.87816915	     17.50282730	      3.15449120	     -8.20621723	     -0.54350488	     -0.76692071	     -9.47630212	      4.86811707	     -6.16132662	     -3.41193884	     13.24552292
      0.96233333	      2.11062847	      3.64248492	     -5.32671219	     -0.17619537	      1.00915931	      0.26381460	    -11.10441370	     -1.58177994	     -0.60754087	    -12.68071407	     16.06983538	     -5.30630686	      8.82874796	     17.36933986	      3.26016999	     -8.07542607	     -0.32053926	     -0.71987872	     -9.46703902	      4.88877463	     -6.13483699	     -3.46479916	     13.24344067
      0.96650000	      2.21240096	      3.70586459	     -5.36231021	     -0.17042500	      1.00875887	      0.26338319	    -11.26596519	     -1.72514269	     -0.66256270	    -13.29415227	     16.22993612	     -5.16116920	      8.72365478	     17.12565263	      3.41759945	     -7.86518505	     -0.11257336	     -0.77067538	     -9.61075720	      4.94028754	     -6.21362417	     -3.54283627	     13.25994539
      0.97066667	      2.26419560	      3.76866422	     -5.37773392	     -0.16463415	      1.00832645	      0.26294264	    -11.35256527	     -1.85881096	     -0.73292611	    -13.95516541	     16.35078310	     -5.08666996	      8.60422236	     16.95782375	      3.56987518	     -7.61396857	     -0.02765254	     -0.82607490	     -9.79557703	      5.01470411	     -6.21386824	     -3.63045026	     13.26310702
      0.97483333	      2.32071987	      3.84333978	     -5.39135104	     -0.15882154	      1.00793621	      0.26249425	    -11.42835470	     -2.00609761	     -0.78876366	    -14.64635646	     16.43286485	     -5.03214662	      8.50170196	     16.79329623	      3.73417806	     -7.34956262	     -0.03173178	     -0.89430959	     -9.97062085	      5.10018373	     -6.22410720	     -3.72976477	     13.26213036
      0.97900000	      2.37479247	      3.93066509	     -5.40577456	     -0.15299479	      1.00758528	      0.26204927	    -11.47574828	     -2.16918481	     -0.85008991	    -15.38804158	     16.49602647	     -4.96704975	      8.42259466	     16.63850654	      3.91054111	     -7.06540916	     -0.11459161	     -0.99408706	    -10.17958519	      5.19332052	     -6.22448000	     -3.85805842	     13.25895754
      0.98316667	      2.44097457	      4.03101952	     -5.41869962	     -0.14715045	      1.00727958	      0.26158218	    -11.51459177	     -2.35120119	     -0.91549560	    -16.17105975	     16.52462592	     -4.89151146	      8.36964479	     16.47561246	      4.10356620	     -6.75322150	     -0.26649619	     -1.11386152	    -10.40750841	      5.29091020	     -6.23917878	     -3.98833666	     13.25305464
      0.98733333	      2.48259083	      4.12999840	     -5.42713222	     -0.14128830	      1.00697550	      0.26109085	    -11.49623327	     -2.53504303	     -1.00318991	    -17.01446355	     16.51659061	     -4.80081620	      8.33868306	     16.34601673	      4.29409371	     -6.42489648	     -0.48615857	     -1.26911273	    -10.69111222	      5.40354259	     -6.21476729	     -4.11206428	     13.23925759
      0.99150000	      2.53211246	      4.24000287	     -5.43468160	     -0.13541811	      1.00670921	      0.26060015	    -11.46255617	     -2.73167351	     -1.08316828	    -17.90216269	     16.47737014	     -4.71262122	      8.33524926	     16.21403455	      4.49676524	     -6.08237350	     -0.76322230	     -1.44444008	    -10.98539057	      5.52372021	     -6.20284848	     -4.25859193	     13.22378825
      0.99566667	      2.58868683	      4.35874659	     -5.43745285	     -0.12954023	      1.00648739	      0.26008298	    -11.40846177	     -2.94339563	     -1.17982479	    -18.84171457	     16.39690236	     -4.60412284	      8.36440744	     16.08136092	      4.71186303	     -5.73050098	     -1.09260009	     -1.65112135	    -11.31410504	      5.66209582	     -6.19885532	     -4.41350338	     13.20398738
      0.99983333	      2.65448666	      4.48876136	     -5.44548112	     -0.12364826	      1.00631140	      0.25957702	    -11.33423293	     -3.17112555	     -1.27114644	    -19.83592402	     16.27902237	     -4.50853404	      8.42447832	     15.93979916	      4.93685332	     -5.39434706	     -1.45724968	     -1.86310457	    -11.62349695	      5.79607727	     -6.19896707	     -4.58580692	     13.17992359
      1.00400000	      2.70863265	      4.61066349	     -5.43009670	     -0.11775313	      1.00615280	      0.25901897	    -11.23232112	     -3.38726072	     -1.37648928	    -20.85526335	     16.06342181	     -4.42758639	      8.63952859	     15.81398310	      5.16227140	     -4.97903905	     -1.85773910	     -2.11156993	    -12.07271153	      6.11154308	     -6.19337585	     -4.74710254	     13.16118857
      1.00816667	      2.76180299	      4.74778643	     -5.43798760	     -0.11187185	      1.00601113	      0.25849016	    -11.07439026	     -3.63038752	     -1.47341055	    -21.97391587	     15.88170663	     -4.29489662	      8.80028634	     15.71757371	      5.38783685	     -4.72440686	     -2.33364124	     -2.34496790	    -12.32494306	      6.27792610	     -6.18392088	     -4.92430922	     13.11907693
      1.01233333	      2.78330375	      4.88752959	     -5.44740707	     -0.10595597	      1.00585872	      0.25795584	    -10.85061480	     -3.87643349	     -1.55875637	    -23.14799546	     15.62433583	     -4.22211563	      8.95921588	     15.63910594	      5.61378429	     -4.44166232	     -2.79914773	     -2.56675849	    -12.60822048	      6.40517302	     -6.11873696	     -5.10059320	     13.07707777
      1.01650000	      2.87534234	      5.02193409	     -5.42150777	     -0.10006596	      1.00582749	      0.25736048	    -10.69837722	     -4.12062706	     -1.69297727	    -24.32424204	     15.25312491	     -4.11854158	      9.52819406	     15.47904487	      5.85849226	     -4.03644483	     -3.26753050	     -2.82090188	    -13.10141294	      6.76733273	     -6.15908131	     -5.27970661	     13.03983617
      1.02066667	      2.91195571	      5.16550710	     -5.42940784	     -0.09417991	      1.00575148	      0.25682900	    -10.42890519	     -4.37552513	     -1.76504771	    -25.58903951	     14.82954518	     -4.15828199	     13.56788478	     15.41299503	      6.07852679	     -3.88376718	     -3.80904098	     -3.07328450	    -13.27819825	      8.83682238	     -6.12352983	     -5.47099165	     12.96561680
      1.02483333	      2.97121168	      5.31918152	     -5.43152083	     -0.08829618	      1.00572172	      0.25626081	    -10.14829085	     -4.65425443	     -1.87911949	    -26.92102587	     14.41512139	     -4.04684369	     13.60501713	     15.31599321	      6.31543380	     -3.71827512	     -4.34899081	     -3.25877623	    -13.44292245	      8.84711577	     -6.11138795	     -5.66834261	     12.92129166
      1.02900000	      3.01270528	      5.46571029	     -5.42356138	     -0.08243079	      1.00569266	      0.25568000	     -9.81969199	     -4.92145624	     -1.98220468	    -28.29705749	     13.93237493	     -3.97366814	     13.68130632	     15.23905492	      6.54447162	     -3.53337139	     -4.89942817	     -3.43963892	    -13.65559662	      8.85672509	     -6.08448007	     -5.85476385	     12.85706276
      1.03316667	      3.07997438	      5.62692972	     -5.41727512	     -0.07656868	      1.00572731	      0.25510833	     -9.49533819	     -5.20751386	     -2.06939675	    -29.70027953	     13.36723262	     -3.93551510	     13.76639378	     15.13336535	      6.78792112	     -3.37589820	     -5.45561427	     -3.58345391	    -13.81789569	      8.86264123	     -6.09195572	     -6.07142769	     12.79083717
